RWalking1.mot
version=1
datacolumns 20
datarows 45
range 1.140000 1.580000
inDegrees=yes
endheader
time	pelvis_tilt	pelvis_list	pelvis_rotation	hip_flexion_r	hip_adduction_r	hip_rotation_r	knee_angle_r	ankle_angle_r	hip_flexion_l	hip_adduction_l	hip_rotation_l	knee_angle_l	ankle_angle_l	pelvis_tx	pelvis_ty	pelvis_tz	lumbar_bending	lumbar_rotation	lumbar_extension
1.140000	-11.440000	1.030000	1.210000	0.080000	1.450000	-6.270000	-2.150000	9.120000	37.690000	0.900000	4.580000	-25.150000	1.720000	-0.630000	0.970000	0.010000	-6.420000	-4.700000	-0.590000
1.150000	-11.100000	0.990000	1.160000	-1.420000	1.560000	-6.100000	-1.440000	9.250000	37.630000	0.810000	4.240000	-21.700000	1.560000	-0.620000	0.970000	0.000000	-6.030000	-5.040000	-0.600000
1.160000	-10.770000	0.880000	1.090000	-2.890000	1.760000	-6.010000	-0.780000	9.360000	37.620000	0.830000	3.870000	-18.500000	1.320000	-0.610000	0.960000	0.000000	-5.670000	-5.370000	-0.680000
1.170000	-10.470000	0.720000	0.970000	-4.290000	2.000000	-6.020000	-0.210000	9.490000	37.670000	0.930000	3.470000	-15.610000	1.040000	-0.600000	0.960000	0.000000	-5.370000	-5.690000	-0.820000
1.180000	-10.220000	0.550000	0.810000	-5.590000	2.230000	-6.150000	0.260000	9.640000	37.790000	1.090000	3.030000	-13.090000	0.760000	-0.580000	0.960000	0.000000	-5.150000	-5.990000	-0.970000
1.190000	-10.050000	0.430000	0.620000	-6.750000	2.410000	-6.380000	0.610000	9.860000	37.990000	1.260000	2.580000	-10.960000	0.530000	-0.570000	0.950000	0.000000	-5.030000	-6.260000	-1.090000
1.200000	-9.960000	0.380000	0.400000	-7.780000	2.500000	-6.670000	0.820000	10.160000	38.240000	1.400000	2.130000	-9.240000	0.400000	-0.560000	0.950000	-0.000000	-5.020000	-6.520000	-1.140000
1.210000	-9.960000	0.420000	0.190000	-8.650000	2.470000	-6.960000	0.910000	10.550000	38.520000	1.470000	1.690000	-7.920000	0.390000	-0.550000	0.950000	-0.000000	-5.100000	-6.740000	-1.080000
1.220000	-10.030000	0.570000	-0.010000	-9.390000	2.320000	-7.200000	0.860000	10.980000	38.790000	1.460000	1.270000	-6.990000	0.510000	-0.530000	0.950000	-0.000000	-5.250000	-6.920000	-0.910000
1.230000	-10.140000	0.820000	-0.170000	-10.020000	2.050000	-7.340000	0.660000	11.410000	39.020000	1.340000	0.870000	-6.440000	0.700000	-0.520000	0.940000	-0.000000	-5.450000	-7.050000	-0.630000
1.240000	-10.280000	1.140000	-0.290000	-10.550000	1.700000	-7.350000	0.310000	11.800000	39.170000	1.120000	0.520000	-6.210000	0.890000	-0.510000	0.940000	-0.010000	-5.680000	-7.140000	-0.270000
1.250000	-10.420000	1.510000	-0.380000	-11.010000	1.280000	-7.200000	-0.210000	12.070000	39.220000	0.820000	0.210000	-6.260000	0.980000	-0.490000	0.940000	-0.010000	-5.900000	-7.170000	0.170000
1.260000	-10.550000	1.900000	-0.430000	-11.380000	0.820000	-6.920000	-0.910000	12.190000	39.190000	0.440000	-0.030000	-6.530000	0.900000	-0.480000	0.940000	-0.010000	-6.120000	-7.160000	0.630000
1.270000	-10.670000	2.300000	-0.460000	-11.670000	0.330000	-6.530000	-1.800000	12.120000	39.070000	0.030000	-0.200000	-6.960000	0.590000	-0.470000	0.940000	-0.010000	-6.330000	-7.110000	1.100000
1.280000	-10.770000	2.690000	-0.480000	-11.870000	-0.150000	-6.050000	-2.900000	11.850000	38.880000	-0.400000	-0.290000	-7.500000	0.090000	-0.450000	0.930000	-0.010000	-6.540000	-7.030000	1.540000
1.290000	-10.860000	3.040000	-0.490000	-11.960000	-0.620000	-5.520000	-4.220000	11.390000	38.640000	-0.830000	-0.300000	-8.110000	-0.570000	-0.440000	0.930000	-0.010000	-6.750000	-6.940000	1.940000
1.300000	-10.930000	3.370000	-0.500000	-11.960000	-1.080000	-4.950000	-5.750000	10.710000	38.350000	-1.250000	-0.250000	-8.780000	-1.340000	-0.420000	0.930000	-0.010000	-6.960000	-6.850000	2.300000
1.310000	-10.980000	3.670000	-0.520000	-11.840000	-1.550000	-4.390000	-7.490000	9.760000	38.030000	-1.650000	-0.160000	-9.490000	-2.130000	-0.410000	0.930000	-0.010000	-7.160000	-6.760000	2.620000
1.320000	-11.030000	3.950000	-0.540000	-11.580000	-2.040000	-3.860000	-9.460000	8.470000	37.700000	-2.020000	-0.030000	-10.270000	-2.860000	-0.390000	0.940000	-0.020000	-7.370000	-6.670000	2.890000
1.330000	-11.070000	4.210000	-0.560000	-11.160000	-2.560000	-3.390000	-11.630000	6.820000	37.380000	-2.380000	0.110000	-11.130000	-3.410000	-0.380000	0.940000	-0.020000	-7.610000	-6.580000	3.130000
1.340000	-11.130000	4.460000	-0.580000	-10.560000	-3.120000	-2.990000	-14.020000	4.820000	37.080000	-2.720000	0.260000	-12.080000	-3.720000	-0.360000	0.940000	-0.020000	-7.860000	-6.480000	3.360000
1.350000	-11.210000	4.710000	-0.580000	-9.750000	-3.700000	-2.660000	-16.630000	2.530000	36.810000	-3.050000	0.430000	-13.120000	-3.740000	-0.350000	0.940000	-0.020000	-8.130000	-6.350000	3.570000
1.360000	-11.290000	4.960000	-0.560000	-8.710000	-4.310000	-2.410000	-19.490000	0.050000	36.550000	-3.380000	0.630000	-14.230000	-3.500000	-0.330000	0.940000	-0.030000	-8.410000	-6.180000	3.780000
1.370000	-11.380000	5.220000	-0.530000	-7.450000	-4.920000	-2.230000	-22.600000	-2.500000	36.280000	-3.720000	0.880000	-15.380000	-3.050000	-0.320000	0.940000	-0.030000	-8.680000	-5.990000	4.010000
1.380000	-11.470000	5.500000	-0.480000	-5.970000	-5.520000	-2.090000	-25.930000	-5.000000	35.980000	-4.080000	1.180000	-16.500000	-2.480000	-0.300000	0.940000	-0.030000	-8.930000	-5.760000	4.260000
1.390000	-11.540000	5.810000	-0.430000	-4.300000	-6.120000	-1.960000	-29.460000	-7.340000	35.620000	-4.480000	1.520000	-17.550000	-1.870000	-0.290000	0.950000	-0.030000	-9.140000	-5.510000	4.550000
1.400000	-11.590000	6.160000	-0.380000	-2.480000	-6.700000	-1.830000	-33.120000	-9.410000	35.160000	-4.900000	1.840000	-18.460000	-1.290000	-0.280000	0.950000	-0.030000	-9.300000	-5.230000	4.870000
1.410000	-11.590000	6.540000	-0.350000	-0.570000	-7.250000	-1.670000	-36.830000	-11.100000	34.570000	-5.370000	2.130000	-19.190000	-0.770000	-0.260000	0.950000	-0.030000	-9.430000	-4.910000	5.210000
1.420000	-11.560000	6.930000	-0.340000	1.410000	-7.770000	-1.470000	-40.490000	-12.310000	33.860000	-5.850000	2.340000	-19.730000	-0.310000	-0.250000	0.950000	-0.030000	-9.510000	-4.570000	5.540000
1.430000	-11.490000	7.280000	-0.370000	3.400000	-8.210000	-1.230000	-44.020000	-12.990000	33.010000	-6.300000	2.470000	-20.050000	0.110000	-0.240000	0.950000	-0.040000	-9.560000	-4.220000	5.820000
1.440000	-11.390000	7.540000	-0.440000	5.390000	-8.530000	-0.970000	-47.340000	-13.120000	32.050000	-6.660000	2.540000	-20.170000	0.530000	-0.220000	0.960000	-0.040000	-9.590000	-3.870000	6.000000
1.450000	-11.280000	7.670000	-0.550000	7.370000	-8.710000	-0.730000	-50.380000	-12.760000	30.980000	-6.880000	2.570000	-20.080000	0.950000	-0.210000	0.960000	-0.040000	-9.610000	-3.530000	6.040000
1.460000	-11.160000	7.640000	-0.690000	9.340000	-8.720000	-0.570000	-53.100000	-12.010000	29.820000	-6.940000	2.590000	-19.800000	1.380000	-0.200000	0.960000	-0.040000	-9.620000	-3.200000	5.910000
1.470000	-11.040000	7.460000	-0.850000	11.290000	-8.570000	-0.510000	-55.470000	-11.020000	28.590000	-6.830000	2.660000	-19.350000	1.810000	-0.180000	0.960000	-0.040000	-9.630000	-2.880000	5.620000
1.480000	-10.950000	7.150000	-1.000000	13.250000	-8.280000	-0.590000	-57.490000	-9.910000	27.320000	-6.580000	2.800000	-18.750000	2.220000	-0.170000	0.970000	-0.040000	-9.640000	-2.570000	5.210000
1.490000	-10.890000	6.750000	-1.150000	15.220000	-7.910000	-0.790000	-59.170000	-8.800000	26.050000	-6.230000	3.040000	-18.050000	2.610000	-0.160000	0.970000	-0.040000	-9.650000	-2.260000	4.710000
1.500000	-10.880000	6.310000	-1.280000	17.230000	-7.480000	-1.070000	-60.530000	-7.760000	24.810000	-5.840000	3.380000	-17.290000	2.970000	-0.150000	0.970000	-0.040000	-9.680000	-1.940000	4.180000
1.510000	-10.910000	5.870000	-1.380000	19.270000	-7.050000	-1.410000	-61.590000	-6.830000	23.620000	-5.440000	3.800000	-16.520000	3.270000	-0.140000	0.970000	-0.050000	-9.730000	-1.590000	3.650000
1.520000	-10.970000	5.450000	-1.420000	21.310000	-6.650000	-1.750000	-62.340000	-6.000000	22.490000	-5.090000	4.270000	-15.780000	3.520000	-0.120000	0.980000	-0.050000	-9.780000	-1.210000	3.140000
1.530000	-11.030000	5.070000	-1.400000	23.290000	-6.290000	-2.070000	-62.760000	-5.250000	21.390000	-4.800000	4.750000	-15.080000	3.710000	-0.110000	0.980000	-0.050000	-9.810000	-0.770000	2.670000
1.540000	-11.060000	4.720000	-1.300000	25.130000	-5.990000	-2.340000	-62.810000	-4.540000	20.280000	-4.580000	5.180000	-14.440000	3.850000	-0.100000	0.980000	-0.050000	-9.790000	-0.300000	2.250000
1.550000	-11.040000	4.390000	-1.140000	26.770000	-5.730000	-2.570000	-62.440000	-3.850000	19.150000	-4.400000	5.550000	-13.840000	3.920000	-0.090000	0.980000	-0.050000	-9.690000	0.210000	1.870000
1.560000	-10.960000	4.100000	-0.940000	28.190000	-5.500000	-2.750000	-61.610000	-3.190000	17.980000	-4.260000	5.830000	-13.280000	3.950000	-0.080000	0.980000	-0.050000	-9.540000	0.720000	1.540000
1.570000	-10.830000	3.840000	-0.700000	29.390000	-5.290000	-2.890000	-60.320000	-2.550000	16.790000	-4.140000	6.040000	-12.740000	3.950000	-0.070000	0.980000	-0.050000	-9.340000	1.230000	1.280000
1.580000	-10.680000	3.620000	-0.440000	30.370000	-5.110000	-3.020000	-58.590000	-1.930000	15.570000	-4.050000	6.210000	-12.200000	3.950000	-0.060000	0.980000	-0.050000	-9.120000	1.720000	1.070000
